<svg width="30" height="30" viewBox="0 0 30 30" fill="none" xmlns="http://www.w3.org/2000/svg">
<path fill-rule="evenodd" clip-rule="evenodd" d="M30 0H0V30H30V0ZM9.16619 14.9556C9.16619 11.7189 11.8076 9.07745 15.0444 9.07745C18.2811 9.07745 20.9226 11.7189 20.9226 14.9556C20.9226 18.1924 18.2811 20.8338 15.0444 20.8338C11.8076 20.8338 9.16619 18.1924 9.16619 14.9556ZM6 14.9556C6 19.9607 10.0393 24 15.0444 24C20.0494 24 24.0887 19.9607 24.0887 14.9556C24.0887 9.95057 20.0494 5.91125 15.0444 5.91125C10.0393 5.91125 6 9.95057 6 14.9556ZM22.3469 5.54084C22.3469 6.70942 23.2906 7.6531 24.4592 7.6531C24.7366 7.65345 25.0115 7.59905 25.2679 7.49302C25.5243 7.387 25.7573 7.23142 25.9535 7.03521C26.1497 6.839 26.3053 6.60601 26.4113 6.34958C26.5174 6.09315 26.5718 5.81832 26.5714 5.54084C26.5714 4.37226 25.6277 3.42857 24.4592 3.42857C23.2906 3.42857 22.3469 4.37226 22.3469 5.54084Z" fill="white"/>
</svg>
